# xmcd CD database file
#
# Track frame offsets:
#	150
#	16257
#	31817
#	47882
#	62757
#	77405
#	90307
#	101817
#	116375
#	132702
#	149030
#	169902
#	185270
#	202772
#	221507
#	241722
#	256635
#	280540
#	296035
#	330612
#
# Disc length: 4795 seconds
#
# Revision: 5
# Processed by: cddbd v1.5.2PL0 Copyright (c) Steve Scherf et al.
# Submitted via: CDex 1.70beta2
#
DISCID=1412b914
DTITLE=Various Artist - Dancemania EX3
DYEAR=2003
DGENRE=Dance
TTITLE0=BEAUTIFUL MORNING (Spanish Fly Club Version)
TTITLE1=SOMETHING GOT ME STARTED
TTITLE2=MAS QUE NADA
TTITLE3=LOVE, LEAVE, FORGET
TTITLE4=RHINESTONE COWBOY (GIDDY UP GIDDY UP)
TTITLE5=HELP! I'M A FISH
TTITLE6=TOKYO
TTITLE7=HAI HAI HAI
TTITLE8=I WAS MADE FOR LOVIN' YOU
TTITLE9=BORN TO BE ALIVE
TTITLE10=WORKAHOLIC (K-Groove Trance Mix)
TTITLE11=MOSQUITO
TTITLE12=PRAY (Flip and Fill Remix)
TTITLE13=I WANNA DANCE WITH SOMEBODY (Q-Tex Club Mix)
TTITLE14=SOMEDAY (Clubstar Remix)
TTITLE15=LIBERTINE
TTITLE16=GIMME GIMME GIMME (2003 Trance Remix)
TTITLE17=SHOW BIZ
TTITLE18=I DO I DO I DO (Red Monster KH-R Master Mix)
TTITLE19=データ
EXTD=YEAR: 2003
EXTT0=
EXTT1=
EXTT2=
EXTT3=
EXTT4=
EXTT5=
EXTT6=
EXTT7=
EXTT8=
EXTT9=
EXTT10=
EXTT11=
EXTT12=
EXTT13=
EXTT14=
EXTT15=
EXTT16=
EXTT17=
EXTT18=
EXTT19=
PLAYORDER=
